<?xml version="1.0" encoding="UTF-8"?>
<svg id="Layer_1" xmlns="http://www.w3.org/2000/svg" xmlns:xlink="http://www.w3.org/1999/xlink" viewBox="0 0 225.83 261.66">
  <defs>
    <style>
      .cls-1 {
        stroke: #44d4e0;
        stroke-miterlimit: 10;
      }

      .cls-1, .cls-2 {
        fill: none;
      }

      .cls-3 {
        fill: #44d4e0;
      }

      .cls-4 {
        fill: #5bdd5d;
      }

      .cls-5 {
        fill: url(#linear-gradient);
      }

      .cls-6 {
        clip-path: url(#clippath);
      }
    </style>
    <clipPath id="clippath">
      <polygon class="cls-2" points="54.41 152.07 54.41 180.16 115.68 217.43 180.02 179.26 180.02 153.86 116.07 190.5 54.41 152.07"/>
    </clipPath>
    <linearGradient id="linear-gradient" x1="43.95" y1="195.79" x2="187.12" y2="195.79" gradientUnits="userSpaceOnUse">
      <stop offset="0" stop-color="#0ba678"/>
      <stop offset=".24" stop-color="#09c177"/>
      <stop offset=".53" stop-color="#07da76"/>
      <stop offset=".79" stop-color="#06ea76"/>
      <stop offset="1" stop-color="#06f076"/>
    </linearGradient>
  </defs>
  <path d="M0,66.37v127.17c0,1,.53,1.92,1.39,2.41l110.13,63.58c.86.5,1.92.5,2.79,0l110.13-63.58c.86-.5,1.39-1.42,1.39-2.41v-127.17c0-1-.53-1.92-1.39-2.41L114.31.37c-.86-.5-1.92-.5-2.79,0L1.39,63.96c-.86.5-1.39,1.42-1.39,2.41Z"/>
  <polyline class="cls-1" points="26.66 171.3 38.24 160.24 38.24 134.28 29.73 126.54 29.73 91.73"/>
  <polyline class="cls-1" points="47.07 129.92 36.85 121.11 36.85 80.64 113.71 35.71"/>
  <polyline class="cls-1" points="46.68 120.77 46.68 86.94 113.71 47.23"/>
  <polyline class="cls-1" points="192.37 93.48 185.98 100.37 185.98 133.31 199 145.57 199 163.69"/>
  <line class="cls-1" x1="195.43" y1="121.82" x2="202.58" y2="128.59"/>
  <path class="cls-4" d="M119.97,190.75v-15.96c0-.63.25-1.23.69-1.68l4.46-4.46c.58-.58,1.46-.75,2.22-.42,1.09.48,2.84,1.11,4.89,1.41,3.79.55,7.75.17,10.34-.3.76-.14,5.62-1.4,8.94-4.81,1.61-1.65,3.63-4.2,6.19-9.76s3.7-11.74,4.21-16.72c.23-2.26.33-3.68.37-4.56.03-.73-.53-1.32-1.26-1.33-2.12-.01-6.34-.04-8.31.01-2.68.06-11.36,1.98-15.13,3.96s-8.87,4.91-11.49,9.7c-2.62,4.79-2.38,10.38-2.21,12.19.09,1,.75,2.43,1.31,3.5.4.77,1.44.93,2.05.31l11.13-11.26c.45-.46,1.09-.68,1.73-.6l1.03.13-14.91,14.91-5.01,5.01c-.31.31-.84.09-.84-.35v-54.15s.17-2.65,2.95-2.65,5.27.77,5.27.77c0,0,4.3,1.19,10.47.94s8.21-1.7,12.85-5.62c4.64-3.91,8.27-8.36,11.06-15.14s3.62-8.47,5.19-18c1.04-6.3,1.28-10,1.33-11.78.02-.73-.57-1.32-1.3-1.3-2.65.07-8.8.28-12.87.87-5.32.77-12.64,2.43-20.43,6.43s-12.47,7.53-14.26,11.57c-1.79,4.04-2.85,7.48-2.94,12.89-.09,5.4,1.32,8.22,1.57,9.2s1.77,3.07,2.37,3.2c.55.12,16.3-16.46,18.59-18.87.18-.19.42-.32.68-.37h0c.8-.16,1.54.46,1.53,1.28v.24c-.01.33-.14.65-.38.88l-18.39,18.39s-.04.04-.06.06c-.11.12-.57.64-1.17,1.16s-2.21.63-3.44-.52-3.34-4.56-3.34-4.56c0,0-1.4-.89-1.4,1.28v37.67c0,1.14-1.38,1.71-2.19.91l-23.84-23.84c-.24-.24-.38-.57-.38-.91v-.08c0-.71.57-1.28,1.28-1.28h.72c.34,0,.67.13.91.38l16.47,16.47c.76.76,2.05.31,2.18-.75.18-1.53.36-3.45.34-4.9-.04-2.85-.04-2.13-.04-2.85s-.94-9.79-3.28-13.49c-4.49-7.09-8.34-8.98-17.23-11.96s-12.04-2.94-15.45-3.28c-2.32-.23-5.57-.41-7.41-.49-.76-.04-1.38.59-1.33,1.35.12,2.02.45,5.94,1.25,9.99,1.15,5.83,2.13,12.38,7.96,22.55s12.13,11.28,15.91,12.72,9.91.43,11.53.09,2.98-1.06,3.49-1.28c.44-.18,5.38,5.21,6.71,6.68.21.24.33.54.33.86v39.67c0,.65.48,1.19,1.13,1.27l5.23.63c.76.09,1.43-.5,1.43-1.27Z"/>
  <circle class="cls-3" cx="25.96" cy="171.81" r="2.81"/>
  <circle class="cls-3" cx="29.79" cy="90.41" r="2.81"/>
  <circle class="cls-3" cx="47.58" cy="130.28" r="2.81"/>
  <circle class="cls-3" cx="115.13" cy="34.79" r="2.81"/>
  <circle class="cls-3" cx="193.49" cy="92.63" r="2.81"/>
  <circle class="cls-3" cx="194.33" cy="120.87" r="2.81"/>
  <circle class="cls-3" cx="203.08" cy="129.61" r="2.81"/>
  <circle class="cls-3" cx="199" cy="164.7" r="2.81"/>
  <circle class="cls-3" cx="114.9" cy="46.45" r="2.81"/>
  <g class="cls-6">
    <rect class="cls-5" x="43.95" y="129.92" width="143.17" height="131.74"/>
  </g>
</svg>